<svg width="52" height="20" viewBox="0 0 52 20" fill="none" xmlns="http://www.w3.org/2000/svg">
<path d="M25.3443 13.714C25.2636 13.7507 25.1536 13.7983 25.0143 13.857C24.8749 13.9157 24.7136 13.967 24.5303 14.011C24.3469 14.055 24.1526 14.077 23.9473 14.077C23.7126 14.077 23.4963 14.0367 23.2983 13.956C23.1003 13.868 22.9426 13.736 22.8253 13.56C22.7079 13.3767 22.6493 13.1493 22.6493 12.878V9.017H21.8683V8.258H22.6493V6.344H23.6173V8.258H24.9043V9.017H23.6173V12.581C23.6319 12.7863 23.7016 12.9403 23.8263 13.043C23.9509 13.1383 24.0976 13.186 24.2663 13.186C24.4569 13.186 24.6329 13.153 24.7943 13.087C24.9556 13.021 25.0619 12.9733 25.1133 12.944L25.3443 13.714ZM29.2774 9.105C28.7934 9.11233 28.3644 9.237 27.9904 9.479C27.6238 9.71367 27.3634 10.04 27.2094 10.458V14H26.2414V8.258H27.1434V9.589C27.3414 9.193 27.6018 8.874 27.9244 8.632C28.2544 8.38267 28.5991 8.24333 28.9584 8.214C29.0318 8.214 29.0941 8.214 29.1454 8.214C29.1968 8.214 29.2408 8.21767 29.2774 8.225V9.105ZM29.7865 12.339C29.7865 11.9723 29.8892 11.657 30.0945 11.393C30.3072 11.1217 30.5969 10.9127 30.9635 10.766C31.3302 10.6193 31.7555 10.546 32.2395 10.546C32.4962 10.546 32.7675 10.568 33.0535 10.612C33.3395 10.6487 33.5925 10.7073 33.8125 10.788V10.37C33.8125 9.93 33.6805 9.58533 33.4165 9.336C33.1525 9.07933 32.7785 8.951 32.2945 8.951C31.9792 8.951 31.6749 9.00967 31.3815 9.127C31.0955 9.237 30.7912 9.39833 30.4685 9.611L30.1165 8.929C30.4905 8.67233 30.8645 8.48167 31.2385 8.357C31.6125 8.225 32.0012 8.159 32.4045 8.159C33.1379 8.159 33.7172 8.36433 34.1425 8.775C34.5679 9.17833 34.7805 9.743 34.7805 10.469V12.9C34.7805 13.0173 34.8025 13.1053 34.8465 13.164C34.8979 13.2153 34.9785 13.2447 35.0885 13.252V14C34.9932 14.0147 34.9089 14.0257 34.8355 14.033C34.7695 14.0403 34.7145 14.044 34.6705 14.044C34.4432 14.044 34.2709 13.9817 34.1535 13.857C34.0435 13.7323 33.9812 13.6003 33.9665 13.461L33.9445 13.098C33.6952 13.4207 33.3689 13.67 32.9655 13.846C32.5622 14.022 32.1625 14.11 31.7665 14.11C31.3852 14.11 31.0442 14.033 30.7435 13.879C30.4429 13.7177 30.2082 13.505 30.0395 13.241C29.8709 12.9697 29.7865 12.669 29.7865 12.339ZM33.5265 12.746C33.6145 12.6433 33.6842 12.5407 33.7355 12.438C33.7869 12.328 33.8125 12.2363 33.8125 12.163V11.448C33.5852 11.36 33.3469 11.294 33.0975 11.25C32.8482 11.1987 32.6025 11.173 32.3605 11.173C31.8692 11.173 31.4695 11.272 31.1615 11.47C30.8609 11.6607 30.7105 11.9247 30.7105 12.262C30.7105 12.4453 30.7582 12.625 30.8535 12.801C30.9562 12.9697 31.1029 13.109 31.2935 13.219C31.4915 13.329 31.7335 13.384 32.0195 13.384C32.3202 13.384 32.6062 13.3253 32.8775 13.208C33.1489 13.0833 33.3652 12.9293 33.5265 12.746ZM41.3114 14H40.3434V10.788C40.3434 10.1793 40.248 9.73567 40.0574 9.457C39.874 9.171 39.5917 9.028 39.2104 9.028C38.9464 9.028 38.6824 9.094 38.4184 9.226C38.1617 9.358 37.9307 9.53767 37.7254 9.765C37.5274 9.985 37.3844 10.2417 37.2964 10.535V14H36.3284V8.258H37.2084V9.49C37.3624 9.21867 37.5604 8.984 37.8024 8.786C38.0444 8.588 38.3194 8.434 38.6274 8.324C38.9354 8.214 39.258 8.159 39.5954 8.159C39.9254 8.159 40.2004 8.22133 40.4204 8.346C40.6477 8.46333 40.8237 8.632 40.9484 8.852C41.0804 9.06467 41.172 9.31767 41.2234 9.611C41.282 9.90433 41.3114 10.2233 41.3114 10.568V14ZM44.7856 14.11C44.309 14.11 43.8616 14.033 43.4436 13.879C43.0256 13.7177 42.6663 13.4793 42.3656 13.164L42.7396 12.482C43.0696 12.79 43.3996 13.01 43.7296 13.142C44.0596 13.274 44.397 13.34 44.7416 13.34C45.1376 13.34 45.4603 13.2667 45.7096 13.12C45.959 12.966 46.0836 12.7423 46.0836 12.449C46.0836 12.2363 46.0176 12.0787 45.8856 11.976C45.761 11.8733 45.5813 11.789 45.3466 11.723C45.112 11.6497 44.8333 11.569 44.5106 11.481C44.1146 11.3637 43.781 11.239 43.5096 11.107C43.2383 10.975 43.033 10.81 42.8936 10.612C42.7543 10.414 42.6846 10.1647 42.6846 9.864C42.6846 9.49733 42.78 9.18933 42.9706 8.94C43.1613 8.68333 43.4216 8.489 43.7516 8.357C44.089 8.225 44.4703 8.159 44.8956 8.159C45.321 8.159 45.706 8.225 46.0506 8.357C46.3953 8.489 46.6923 8.68333 46.9416 8.94L46.5016 9.611C46.2743 9.37633 46.025 9.204 45.7536 9.094C45.4823 8.97667 45.178 8.918 44.8406 8.918C44.6426 8.918 44.4483 8.94367 44.2576 8.995C44.067 9.039 43.9093 9.12333 43.7846 9.248C43.66 9.36533 43.5976 9.534 43.5976 9.754C43.5976 9.93733 43.6453 10.084 43.7406 10.194C43.8433 10.2967 43.99 10.3847 44.1806 10.458C44.3786 10.5313 44.617 10.612 44.8956 10.7C45.3283 10.8247 45.7023 10.9493 46.0176 11.074C46.3403 11.1987 46.5896 11.36 46.7656 11.558C46.9416 11.756 47.0296 12.031 47.0296 12.383C47.0296 12.9257 46.8243 13.351 46.4136 13.659C46.003 13.9597 45.4603 14.11 44.7856 14.11Z" fill="white"/>
<mask id="mask0_202_12" style="mask-type:alpha" maskUnits="userSpaceOnUse" x="2" y="2" width="16" height="16">
<circle cx="10" cy="10" r="8" fill="white"/>
</mask>
<g mask="url(#mask0_202_12)">
<g filter="url(#filter0_i_202_12)">
<circle cx="10" cy="10" r="6" fill="url(#paint0_linear_202_12)"/>
</g>
<path d="M17 10C17 11.6195 16.4385 13.1889 15.4111 14.4408C14.3837 15.6926 12.954 16.5496 11.3656 16.8655C9.77726 17.1814 8.12848 16.9369 6.70022 16.1734C5.27196 15.41 4.15259 14.175 3.53284 12.6788C2.91309 11.1826 2.83131 9.51776 3.30142 7.96801C3.77153 6.41826 4.76445 5.07945 6.11101 4.17971C7.45756 3.27997 9.07443 2.87497 10.6861 3.03371C12.2978 3.19244 13.8046 3.9051 14.9497 5.05025" stroke="url(#paint1_linear_202_12)" stroke-width="2"/>
<g filter="url(#filter1_i_202_12)">
<path d="M14.9497 5.05025C16.2625 6.36301 17 8.14348 17 10" stroke="url(#paint2_linear_202_12)" stroke-width="2"/>
</g>
<path d="M9.5 9H17.5C17.7761 9 18 9.22386 18 9.5V11H9.5C9.22386 11 9 10.7761 9 10.5V9.5C9 9.22386 9.22386 9 9.5 9Z" fill="url(#paint3_linear_202_12)"/>
</g>
<mask id="mask1_202_12" style="mask-type:alpha" maskUnits="userSpaceOnUse" x="2" y="10" width="16" height="8">
<path d="M17 10C17 11.8565 16.2625 13.637 14.9497 14.9497C13.637 16.2625 11.8565 17 10 17C8.14349 17 6.36301 16.2625 5.05025 14.9497C3.7375 13.637 3 11.8565 3 10" stroke="white" stroke-width="2"/>
</mask>
<g mask="url(#mask1_202_12)">
<rect x="10" y="11" width="8" height="2" fill="none"/>
</g>
<defs>
<filter id="filter0_i_202_12" x="4" y="4" width="12" height="12" filterUnits="userSpaceOnUse" color-interpolation-filters="sRGB">
<feFlood flood-opacity="0" result="BackgroundImageFix"/>
<feBlend mode="normal" in="SourceGraphic" in2="BackgroundImageFix" result="shape"/>
<feColorMatrix in="SourceAlpha" type="matrix" values="0 0 0 0 0 0 0 0 0 0 0 0 0 0 0 0 0 0 127 0" result="hardAlpha"/>
<feOffset/>
<feGaussianBlur stdDeviation="0.5"/>
<feComposite in2="hardAlpha" operator="arithmetic" k2="-1" k3="1"/>
<feColorMatrix type="matrix" values="0 0 0 0 0 0 0 0 0 0 0 0 0 0 0 0 0 0 0.25 0"/>
<feBlend mode="normal" in2="shape" result="effect1_innerShadow_202_12"/>
</filter>
<filter id="filter1_i_202_12" x="14.2426" y="4.34314" width="3.75736" height="5.65686" filterUnits="userSpaceOnUse" color-interpolation-filters="sRGB">
<feFlood flood-opacity="0" result="BackgroundImageFix"/>
<feBlend mode="normal" in="SourceGraphic" in2="BackgroundImageFix" result="shape"/>
<feColorMatrix in="SourceAlpha" type="matrix" values="0 0 0 0 0 0 0 0 0 0 0 0 0 0 0 0 0 0 127 0" result="hardAlpha"/>
<feOffset/>
<feGaussianBlur stdDeviation="1"/>
<feComposite in2="hardAlpha" operator="arithmetic" k2="-1" k3="1"/>
<feColorMatrix type="matrix" values="0 0 0 0 0 0 0 0 0 0 0 0 0 0 0 0 0 0 0.75 0"/>
<feBlend mode="normal" in2="shape" result="effect1_innerShadow_202_12"/>
</filter>
<linearGradient id="paint0_linear_202_12" x1="5.5" y1="4.375" x2="10" y2="16" gradientUnits="userSpaceOnUse">
<stop stop-color="#E1F5E8"/>
<stop offset="1" stop-color="#A6B4AA"/>
</linearGradient>
<linearGradient id="paint1_linear_202_12" x1="7" y1="1.5" x2="10" y2="18" gradientUnits="userSpaceOnUse">
<stop stop-color="#80C269"/>
<stop offset="1" stop-color="#4E6945"/>
</linearGradient>
<linearGradient id="paint2_linear_202_12" x1="7" y1="1.5" x2="10" y2="18" gradientUnits="userSpaceOnUse">
<stop stop-color="#80C269"/>
<stop offset="1" stop-color="#4E6945"/>
</linearGradient>
<linearGradient id="paint3_linear_202_12" x1="7" y1="2" x2="10" y2="18" gradientUnits="userSpaceOnUse">
<stop stop-color="#80C269"/>
<stop offset="1" stop-color="#4E6945"/>
</linearGradient>
<linearGradient id="paint4_linear_202_12" x1="10" y1="11" x2="10" y2="13" gradientUnits="userSpaceOnUse">
<stop stop-opacity="0.25"/>
<stop offset="1" stop-opacity="0"/>
</linearGradient>
</defs>
</svg>
