<svg width="48" height="16" viewBox="0 0 48 16" fill="none" xmlns="http://www.w3.org/2000/svg">
<path d="M13 8C13 9.15678 12.5989 10.2778 11.8651 11.172C11.1312 12.0662 10.11 12.6783 8.97545 12.9039C7.8409 13.1296 6.6632 12.9549 5.64302 12.4096C4.62283 11.8643 3.82328 10.9821 3.3806 9.91342C2.93792 8.8447 2.8795 7.65554 3.2153 6.54858C3.55109 5.44161 4.26032 4.48532 5.22215 3.84265C6.18397 3.19998 7.33888 2.91069 8.49009 3.02408C9.64129 3.13746 10.7176 3.6465 11.5355 4.46447" stroke="#5DA545" stroke-width="2"/>
<path d="M9 7L13.5 7C13.7761 7 14 7.22386 14 7.5V8H13.25V9L7 9L9 7Z" fill="white"/>
<path d="M13 8C13 8.98891 12.7068 9.95561 12.1573 10.7779C11.6079 11.6001 10.827 12.241 9.91342 12.6194C8.99979 12.9978 7.99445 13.0969 7.02455 12.9039C6.05464 12.711 5.16373 12.2348 4.46447 11.5355" stroke="white" stroke-width="2"/>
<path d="M23.123 11.165C22.5877 11.165 22.1734 11.011 21.88 10.703C21.594 10.395 21.451 9.95867 21.451 9.394V6.578H20.648V5.72H21.451V4.136H22.573V5.72H23.871V6.578H22.573V9.317C22.573 9.669 22.639 9.91833 22.771 10.065C22.9104 10.2117 23.1597 10.285 23.519 10.285C23.7317 10.285 23.9444 10.2373 24.157 10.142V11.022C23.8784 11.1173 23.5337 11.165 23.123 11.165ZM25.2023 5.72H26.2803V6.666C26.5003 6.34333 26.8083 6.105 27.2043 5.951C27.6076 5.797 28.0733 5.72 28.6013 5.72V6.589C28.0366 6.589 27.5526 6.68067 27.1493 6.864C26.746 7.04733 26.4673 7.337 26.3133 7.733V11H25.2023V5.72ZM30.9937 11.165C30.3557 11.165 29.8424 11.0037 29.4537 10.681C29.0724 10.351 28.8817 9.90733 28.8817 9.35C28.8817 8.76333 29.0651 8.31233 29.4317 7.997C29.8057 7.67433 30.3337 7.513 31.0157 7.513C31.7417 7.513 32.3577 7.65967 32.8637 7.953V7.678C32.8637 7.26 32.7354 6.952 32.4787 6.754C32.2294 6.54867 31.8334 6.446 31.2907 6.446C30.9681 6.446 30.6527 6.479 30.3447 6.545C30.0441 6.60367 29.7727 6.688 29.5307 6.798V5.896C29.7507 5.79333 30.0367 5.71267 30.3887 5.654C30.7407 5.588 31.0817 5.555 31.4117 5.555C32.2844 5.555 32.9297 5.74933 33.3477 6.138C33.7731 6.51933 33.9857 7.051 33.9857 7.733V11H32.9407V10.406C32.7134 10.6553 32.4421 10.846 32.1267 10.978C31.8187 11.1027 31.4411 11.165 30.9937 11.165ZM31.2687 10.318C31.6207 10.318 31.9397 10.2483 32.2257 10.109C32.5117 9.96967 32.7244 9.77533 32.8637 9.526V8.811C32.3871 8.503 31.8554 8.349 31.2687 8.349C30.8434 8.349 30.5244 8.43333 30.3117 8.602C30.1064 8.76333 30.0037 9.01267 30.0037 9.35C30.0037 9.99533 30.4254 10.318 31.2687 10.318ZM35.3644 5.72H36.4424V6.479C36.6917 6.16367 36.9961 5.93267 37.3554 5.786C37.7221 5.632 38.1034 5.555 38.4994 5.555C39.2034 5.555 39.7277 5.742 40.0724 6.116C40.4171 6.49 40.5894 6.99233 40.5894 7.623V11H39.4784V7.733C39.4784 6.875 39.0677 6.446 38.2464 6.446C37.8944 6.446 37.5644 6.53033 37.2564 6.699C36.9557 6.86033 36.6954 7.10967 36.4754 7.447V11H35.3644V5.72ZM43.9071 11.165C43.5405 11.165 43.1518 11.1173 42.7411 11.022C42.3305 10.934 42.0078 10.813 41.7731 10.659V9.713C42.0591 9.88167 42.3891 10.021 42.7631 10.131C43.1371 10.2337 43.5001 10.285 43.8521 10.285C44.2481 10.285 44.5378 10.2373 44.7211 10.142C44.9045 10.0467 44.9961 9.89267 44.9961 9.68C44.9961 9.51867 44.9521 9.39033 44.8641 9.295C44.7835 9.19233 44.6405 9.10067 44.4351 9.02C44.2371 8.93933 43.9365 8.844 43.5331 8.734C43.1005 8.60933 42.7558 8.48467 42.4991 8.36C42.2498 8.228 42.0591 8.063 41.9271 7.865C41.8025 7.667 41.7401 7.41033 41.7401 7.095C41.7401 6.589 41.9381 6.20767 42.3341 5.951C42.7375 5.687 43.2765 5.555 43.9511 5.555C44.3031 5.555 44.6478 5.588 44.9851 5.654C45.3225 5.72 45.5938 5.81167 45.7991 5.929V6.853C45.5865 6.72833 45.3225 6.62933 45.0071 6.556C44.6991 6.48267 44.3838 6.446 44.0611 6.446C43.6725 6.446 43.3755 6.49367 43.1701 6.589C42.9648 6.68433 42.8621 6.853 42.8621 7.095C42.8621 7.249 42.9061 7.37367 42.9941 7.469C43.0821 7.56433 43.2215 7.64867 43.4121 7.722C43.6101 7.788 43.9218 7.876 44.3471 7.986C45.0145 8.16933 45.4765 8.38567 45.7331 8.635C45.9971 8.88433 46.1291 9.229 46.1291 9.669C46.1291 10.1237 45.9421 10.4867 45.5681 10.758C45.1941 11.0293 44.6405 11.165 43.9071 11.165Z" fill="white"/>
</svg>
